<svg width="32" height="32" viewBox="0 0 32 32" xmlns="http://www.w3.org/2000/svg" role="img" aria-label="OLMo logo">
  <path fill="#F0519C" d="M12.522,11.13v7.652c0,0.768,0.623,1.391,1.391,1.391h0c0.768,0,1.391-0.623,1.391-1.391V11.13 c0-0.384,0.311-0.696,0.696-0.696h0c0.384,0,0.696,0.311,0.696,0.696v7.652c0,0.768,0.623,1.391,1.391,1.391h0 c0.768,0,1.391-0.623,1.391-1.391V11.13c0-0.384,0.311-0.696,0.696-0.696h0c0.384,0,0.696,0.311,0.696,0.696v7.652 c0,0.768,0.623,1.391,1.391,1.391h0c0.768,0,1.391-0.623,1.391-1.391V11.13c0-1.921-1.557-3.478-3.478-3.478H16 C14.079,7.652,12.522,9.209,12.522,11.13z"/>
  <path fill="#F0519C" d="M11.13,18.783V9.043c0-0.768-0.623-1.391-1.391-1.391h0c-0.768,0-1.391,0.623-1.391,1.391v9.739 c0,3.074,2.492,5.565,5.565,5.565h8.348c0.768,0,1.391-0.623,1.391-1.391v0c0-0.768-0.623-1.391-1.391-1.391h-8.348 C12.376,21.565,11.13,20.319,11.13,18.783z"/>
  <path fill="#F0519C" d="M25.044,11.13v2.783c0,1.921,1.557,3.478,3.478,3.478h0c1.921,0,3.478-1.557,3.478-3.478V11.13 c0-1.921-1.557-3.478-3.478-3.478h0C26.601,7.652,25.044,9.209,25.044,11.13z M27.826,13.913V11.13c0-0.384,0.311-0.696,0.696-0.696 h0c0.384,0,0.696,0.311,0.696,0.696v2.783c0,0.384-0.311,0.696-0.696,0.696h0C28.138,14.609,27.826,14.297,27.826,13.913z"/>
  <path fill="#F0519C" d="M6.956,20.87v-8.348c0-1.921-1.557-3.478-3.478-3.478h0C1.557,9.043,0,10.601,0,12.522v8.348 c0,1.921,1.557,3.478,3.478,3.478h0C5.399,24.348,6.956,22.791,6.956,20.87z M3.478,11.826L3.478,11.826 c0.384,0,0.696,0.311,0.696,0.696v8.348c0,0.384-0.311,0.696-0.696,0.696h0c-0.384,0-0.696-0.311-0.696-0.696v-8.348 C2.783,12.138,3.094,11.826,3.478,11.826z"/>
</svg>